<?xml version="1.0" encoding="UTF-8" standalone="no"?>
<!-- Created with Inkscape (http://www.inkscape.org/) -->

<svg
   xmlns:dc="http://purl.org/dc/elements/1.1/"
   xmlns:cc="http://creativecommons.org/ns#"
   xmlns:rdf="http://www.w3.org/1999/02/22-rdf-syntax-ns#"
   xmlns:svg="http://www.w3.org/2000/svg"
   xmlns="http://www.w3.org/2000/svg"
   xmlns:sodipodi="http://sodipodi.sourceforge.net/DTD/sodipodi-0.dtd"
   xmlns:inkscape="http://www.inkscape.org/namespaces/inkscape"
   width="900"
   height="600"
   viewBox="0 0 238.12501 158.75"
   version="1.1"
   id="svg8"
   sodipodi:docname="flag.svg"
   inkscape:version="0.92.4 (unknown)">
  <defs
     id="defs2" />
  <sodipodi:namedview
     id="base"
     pagecolor="#ffffff"
     bordercolor="#666666"
     borderopacity="1.0"
     inkscape:pageopacity="0.0"
     inkscape:pageshadow="2"
     inkscape:zoom="0.35"
     inkscape:cx="-154.28571"
     inkscape:cy="548.57143"
     inkscape:document-units="mm"
     inkscape:current-layer="layer1"
     showgrid="false"
     units="px"
     inkscape:window-width="1920"
     inkscape:window-height="1136"
     inkscape:window-x="0"
     inkscape:window-y="27"
     inkscape:window-maximized="1" />
  <metadata
     id="metadata5">
    <rdf:RDF>
      <cc:Work
         rdf:about="">
        <dc:format>image/svg+xml</dc:format>
        <dc:type
           rdf:resource="http://purl.org/dc/dcmitype/StillImage" />
        <dc:title></dc:title>
      </cc:Work>
    </rdf:RDF>
  </metadata>
  <g
     inkscape:label="Layer 1"
     inkscape:groupmode="layer"
     id="layer1"
     transform="translate(0,-138.25001)">
    <g
       aria-label="ð’Š­ ð’€ð’…—ð’²"
       style="font-style:normal;font-variant:normal;font-weight:normal;font-stretch:semi-condensed;font-size:36.68888855px;line-height:125%;font-family:Akkadian;-inkscape-font-specification:'Akkadian, Semi-Condensed';font-variant-ligatures:normal;font-variant-caps:normal;font-variant-numeric:normal;font-feature-settings:normal;text-align:center;letter-spacing:0px;word-spacing:0px;writing-mode:lr-tb;text-anchor:middle;fill:#000000;fill-opacity:1;stroke:none;stroke-width:0.26458332px;stroke-linecap:butt;stroke-linejoin:miter;stroke-opacity:1"
       id="text3715">
      <path
         d="m 54.192727,199.2847 q -4.62194,4.40697 -4.62194,7.95404 v 30.0247 q 0,0.14331 -0.286632,0.32246 -0.268717,0.0896 -0.483691,0.14331 -0.877811,-0.0358 -0.877811,-0.46577 v -15.04818 l -3.994932,-3.11712 -11.089074,8.79601 q -1.2361,0.96739 -1.827278,2.20349 -0.483692,0.9853 -0.806153,2.79466 -0.358289,2.02434 -0.483691,2.38263 -0.214974,0.21497 -0.734494,0.2508 -0.573264,-0.0358 -0.770324,-0.57326 -1.468988,-4.06659 -4.550282,-5.5535 h -6.485047 q -2.973807,0 -6.180502,3.38584 l -0.179145,0.0717 h -0.179145 q -0.429947,0 -0.7703229,-0.3762 v -0.35829 q 0,-0.71658 0.2866319,-1.7198 0.340375,-1.20027 0.340375,-1.77353 0,-0.68075 -0.340375,-1.89894 -0.2866319,-1.02112 -0.2866319,-1.64813 0,-0.66284 0.2866319,-1.77354 0.340375,-1.32567 0.340375,-1.8631 0,-0.55535 -0.340375,-1.79145 -0.2866319,-1.03904 -0.2866319,-1.70188 0,-0.68075 0.2866319,-1.75562 0.340375,-1.28984 0.340375,-1.79145 0,-0.53744 -0.340375,-1.84519 -0.2866319,-1.09279 -0.2866319,-1.7198 0,-0.66283 0.2866319,-1.71979 0.340375,-1.25401 0.340375,-1.79145 0,-0.55535 -0.340375,-1.80936 -0.2866319,-1.05696 -0.2866319,-1.64813 v -0.35829 q 0.3045469,-0.41204 0.7703229,-0.41204 h 0.179145 q 0.609093,0.60909 1.504818,1.3615 2.490115,2.096 4.854829,2.096 h 6.485047 q 1.916851,-1.4869 2.167654,-1.70188 0.483692,-0.44786 1.755621,-2.20348 0.232888,-0.66284 0.465777,-1.34359 0.376204,-0.84198 0.931554,-0.84198 0.734494,0 0.806152,0.46578 0.573264,3.43958 0.734494,3.92327 0.644922,1.95268 2.31097,3.27836 l 11.089074,8.79601 q 1.881022,-1.43316 3.923274,-3.18878 v -5.17729 q 0,-4.98023 -4.747341,-9.27971 v -0.39411 q 0,-0.7345 0.931554,-0.7345 0.250803,0.0717 0.662836,0.17915 2.346799,0.69866 4.030762,0.69866 1.182356,0 3.403754,-0.51952 0.08957,0 0.627007,-0.21497 0.35829,-0.14332 0.627008,-0.14332 0.806152,0 0.806152,1.12861 z m -3.672472,1.36151 h -3.744129 q 0.555349,1.11069 0.87781,1.32567 0.483691,0.71658 0.931554,1.89894 h 0.143316 q 0.340375,-0.8599 0.87781,-1.7198 0.71658,-1.12861 0.913639,-1.50481 z m -2.66926,19.36557 v -4.06659 q -0.501606,0.21497 -1.361501,0.91364 -1.021127,0.82406 -1.146528,1.09278 0,0.2508 1.110699,1.1107 0.913639,0.71658 1.39733,0.94947 z M 29.399064,206.36093 q -0.376204,-1.05696 -0.895725,-2.07808 -0.788238,1.20027 -1.271929,1.71979 1.289844,0.35829 2.167654,0.35829 z m 13.059668,11.68025 v -0.0896 l -0.07166,-0.14332 -10.766612,-8.58104 q -0.107487,-0.0537 -0.985298,-0.55535 h -0.07166 v 18.64899 q 0.107487,0 0.214974,-0.10749 0.501606,-0.14331 0.841982,-0.48369 z m -13.615017,-4.40696 v -5.35644 H 16.697686 q -2.436371,0 -4.998144,2.56177 v 0.14332 q 0.16123,0.23289 0.734494,0.73449 2.131825,1.91686 4.998145,1.91686 z m -15.155664,-6.30591 -1.504818,-0.77032 v 1.71979 z m 15.155664,13.27464 v -5.24894 H 16.590199 q -1.2361,0 -2.687174,0.78824 -1.43316,0.78823 -2.203483,1.80936 v 0.0896 q 2.561773,2.56177 4.890657,2.56177 z m -15.155664,-6.19841 -1.504818,-0.77032 v 1.71979 z m 15.711013,15.22732 h -0.125401 q -1.289844,0 -2.042253,0.39412 0.394119,0.42995 1.271929,1.68396 0.322461,-0.64492 0.895725,-2.07808 z m -0.555349,-1.95268 v -5.35643 H 17.539668 q -1.182357,0 -2.723004,0.55535 -1.666048,0.59117 -2.382628,1.3615 -0.250803,0.26872 -0.734494,0.77032 v 0.0717 q 0.770323,1.07487 2.221397,1.84519 1.468989,0.75241 2.776747,0.75241 z m -15.155664,-6.09093 -1.504818,-0.9853 v 1.7198 z m 0,7.0404 -1.504818,-0.94947 v 1.71979 z"
         style=""
         id="path3773" />
      <path
         d="m 124.75793,214.95989 q 0,0.80615 -0.44786,0.80615 h -8.06153 q -0.2508,0.0537 -1.28984,0.32246 -3.22461,0.8599 -6.48505,4.58611 h -0.77032 q -0.37621,0 -0.37621,-1.09278 0,0.14331 0.55535,-2.27514 0.25081,-1.09279 0.25081,-2.3468 0,-1.95268 -0.42995,-3.56499 -0.0179,-0.0896 -0.23289,-0.627 -0.14332,-0.35829 -0.14332,-0.66284 0,-0.68075 0.23289,-0.80615 0.16123,-0.0358 0.91364,-0.0358 1.63022,1.91685 2.84841,2.83049 1.57647,1.18236 3.63664,1.71979 1.09278,0.28663 1.28984,0.28663 h 8.06153 q 0.44786,0 0.44786,0.8599 z m -13.05967,-13.54336 q -1.75562,1.79145 -2.5976,3.22461 -1.02113,1.7377 -1.54065,3.88744 -0.26872,1.1107 -0.26872,1.39734 v 21.28242 q 0,0.42994 -0.77032,0.42994 -0.73449,0 -0.73449,-0.42994 v -2.65135 q -0.1254,0.19706 -0.28663,0.19706 l -6.717941,0.0717 q -1.648134,0.0179 -3.600814,1.50482 v 0.0716 h -0.107487 q -0.824067,0.64493 -1.719791,1.54065 h -0.519521 q -0.483691,0 -0.35829,-0.62701 l 0.179145,-0.91364 h -0.03583 v -0.87781 h 0.214974 q 0.05374,-0.28663 0.143316,-0.69866 l -6.520877,0.0717 q -1.648133,0.0179 -3.600813,1.50481 v 0.0717 h -0.107487 q -0.644922,0.42995 -1.719792,1.54065 h -0.51952 q -0.483692,0 -0.35829,-0.62701 l 0.179145,-0.91364 h -0.03583 v -0.87781 h 0.250803 q 0.214974,-1.18235 0.214974,-1.43316 0,-1.16444 -0.465777,-2.3468 v 0.0358 q -0.143316,-0.32246 -0.143316,-0.66283 0,-0.66284 0.286632,-0.69867 -0.394119,0 -0.394119,-0.87781 0,-0.48369 0.286632,-1.45107 0.286632,-0.9853 0.286632,-1.48691 0,-1.20027 -0.322461,-2.27514 -1.056956,0.10749 -3.009636,0.55535 l 0.03583,-0.0358 q -2.633431,0.89573 -4.962315,3.0813 -1.540647,1.45107 -3.851617,4.51445 h -0.913639 q -0.179145,-0.17915 -0.179145,-1.00321 0,-0.25081 0.483691,-2.77675 0.734495,-3.8337 0.734495,-5.76847 0,-2.29305 -0.662837,-6.23424 -0.07166,-0.28663 -0.304546,-1.12862 -0.214974,-0.77032 -0.214974,-1.11069 0,-0.77033 0.179145,-0.94947 h 0.967383 q 4.514453,6.46713 8.616872,7.6674 0.19706,0.0896 2.86632,0.42995 0.429948,-1.61231 0.429948,-2.45429 0,-0.53743 -0.322461,-1.55856 -0.304547,-1.02112 -0.304547,-1.41524 0,-0.30455 0.161231,-0.50161 -0.304547,-0.10749 -0.304547,-0.84198 0,-0.3762 0.304547,-1.43316 0.322461,-1.05696 0.322461,-1.6123 0,-0.53744 -0.322461,-1.57648 -0.304547,-1.03904 -0.304547,-1.39733 0,-0.48369 0.179145,-0.59118 0.125402,-0.0358 0.698666,-0.0358 3.206695,2.99172 5.392263,2.97381 l 6.646278,-0.0358 q -0.591178,-2.50803 -0.591178,-2.38263 0,-0.48369 0.179145,-0.59118 0.125401,-0.0358 0.698665,-0.0358 3.242524,3.02755 5.392264,3.00964 l 5.804293,-0.0717 q -0.87781,-1.57647 -2.86632,-3.67247 v -0.80615 q 0,-0.37621 1.03904,-0.37621 0.50161,0 2.00643,0.50161 1.52273,0.5016 2.31097,0.5016 1.07487,0 2.57969,-0.48369 1.6123,-0.51952 1.71979,-0.51952 0.66283,0 0.77032,0.26872 z m -3.42167,1.3615 h -0.10748 q -0.28664,0 -0.82407,0.10749 -0.53744,0.10748 -0.82407,0.10748 -0.30455,0 -0.91364,-0.10748 -0.60909,-0.10749 -0.91364,-0.10749 1.20027,1.9706 1.75562,3.3321 h 0.0717 q 0.51952,-1.21819 1.75562,-3.3321 z m 4.4428,12.28935 v -0.10749 q -0.96739,-0.42995 -3.0813,-1.95268 v 0.10749 q 0,0.30454 0.10749,0.91363 0.1254,0.6091 0.1254,0.93156 0,0.34037 -0.1254,1.02112 -0.10749,0.66284 -0.10749,0.9853 1.14653,-0.84198 1.46899,-1.05695 0.80615,-0.53744 1.61231,-0.84198 z m -17.090432,-9.27971 q -0.841982,-0.35829 -1.683963,-1.03904 0,0.16123 0.05374,0.5016 0.05374,0.34038 0.05374,0.50161 v 0.39412 q 0,0.1254 -0.05374,0.3762 -0.05374,0.23289 -0.05374,0.35829 0.501606,-0.3762 1.683963,-1.09278 z m 10.157522,14.63614 v -10.49789 q -0.0717,-0.44787 -0.32246,-1.39734 -0.17915,-0.68075 -0.66284,-2.06016 l -6.467133,0.0896 q -0.161231,0 -1.092785,0.2508 -2.095996,0.55535 -4.102419,2.66926 h 0.03583 q 2.024338,2.23931 4.174077,2.86632 0.107487,0.0358 1.254015,0.2508 l 6.682106,-0.0717 q 0.39412,0 0.39412,0.59118 0,0.66283 -0.39412,0.66283 l -6.682106,0.0717 q -0.286632,0.1254 -0.806152,0.21497 -1.988509,0.34038 -4.514453,2.86632 2.328884,2.43637 4.245735,2.79466 0.214974,0 0.627008,0.10749 0.412033,0.0896 0.591178,0.10749 l 6.68211,-0.0717 q 0.35829,0 0.35829,0.55535 z m -9.942548,-7.23746 q -0.734495,-0.21497 -1.719792,-0.87781 -0.01792,0.34038 -0.01792,0.82407 0,0.48369 0.01792,1.09278 0.591178,-0.42994 1.719792,-1.03904 z m -3.045465,-0.59118 q -0.07166,-0.3762 -0.322461,-1.41524 -0.232888,-0.94947 -0.232888,-1.07487 0,-0.21497 0.125401,-0.46578 -0.304546,-0.10748 -0.304546,-0.85989 0,-0.10749 0.232888,-0.9853 l 0.322461,-1.2361 -6.610449,0.0717 q -0.376204,0.10748 -0.806152,0.17914 -2.113911,0.35829 -4.389052,2.74092 h 0.03583 q 1.863108,1.9706 3.582899,2.61552 1.486904,0.55535 3.779959,0.55535 1.110699,0 2.095996,-0.0358 z m -9.494683,-6.73585 q -0.71658,-0.30454 -1.683963,-1.00321 0,0.16123 0.05374,0.48369 0.05374,0.32246 0.05374,0.4837 v 0.39411 q 0,0.12541 -0.05374,0.37621 -0.05374,0.23289 -0.05374,0.35829 0.501606,-0.37621 1.683963,-1.09279 z m 22.482696,21.78403 v -6.96874 q 0,0.55535 -0.35829,0.55535 l -6.68211,0.0717 q -0.232888,0.0537 -0.87781,0.17915 -2.095996,0.34037 -4.586111,2.93797 h 0.07166 q 3.35001,3.13504 5.428092,3.11712 l 6.717941,-0.0717 q 0.17914,0 0.28663,0.17914 z m -9.835061,-7.00457 q -0.179145,-0.0358 -1.719792,-0.91364 0.107487,0.42995 0.107487,0.59118 v 0.39412 q 0,0.16123 -0.07166,0.48369 -0.07166,0.30455 -0.07166,0.46578 0.51952,-0.34038 1.755621,-1.02113 z m -3.045465,-0.69866 q -0.214974,-1.75562 -0.537435,-2.16766 v -0.17914 q 0,-0.44786 0.143316,-0.55535 -0.340375,-0.10749 -0.268717,-0.66284 0.250803,-0.93155 0.555349,-2.52594 l -6.520876,0.0717 q -0.286632,0.1254 -0.806153,0.21497 -1.558561,0.26872 -3.564985,1.98851 0.35829,0.42995 0.35829,0.91364 0,0.69867 -0.250803,0.91364 1.881022,1.63022 3.188781,1.84519 0.214974,0 0.627007,0.10749 0.412034,0.0896 0.591178,0.10749 z m -9.387196,-6.64628 q -0.770323,-0.34038 -1.719792,-0.91364 0,0.14332 0.05374,0.42995 0.05374,0.26872 0.05374,0.41203 0,0.14332 -0.05374,0.42995 -0.05374,0.26872 -0.05374,0.41203 v 0.23289 q 0.609093,-0.44786 1.719792,-1.00321 z m 12.432661,14.86903 q -0.949469,-0.53743 -1.648134,-0.98529 0,0.16123 0.07166,0.5016 0.07166,0.32246 0.07166,0.48369 0,0.17915 -0.07166,0.51952 -0.07166,0.32246 -0.07166,0.50161 h 0.03583 q 0.465777,-0.34038 1.612305,-1.02113 z m -2.884234,-0.62701 q -0.107487,-0.87781 -0.447863,-1.79144 v 0.0358 q -0.143316,-0.28663 -0.143316,-0.66283 0,-0.66284 0.286632,-0.69867 -0.394119,0 -0.394119,-0.87781 0,-0.34037 0.501606,-2.23931 l -6.449219,0.0717 q -0.232888,0.0537 -0.87781,0.17914 -2.095996,0.34038 -4.586111,2.93798 h 0.07166 q 3.170866,3.13504 5.428092,3.11712 z m -9.44094,-6.82542 q -0.286632,-0.14331 -1.683963,-0.91364 0.07166,0.48369 0.07166,0.59118 v 0.32246 q 0,0.17915 -0.05374,0.53744 -0.05374,0.34037 -0.05374,0.51952 0.429948,-0.42995 1.719792,-1.05696 z m -8.401899,-3.29627 v -0.66283 q -1.916851,-1.02113 -5.123546,-3.88745 0,0.93156 0.107487,2.096 0.143316,1.55856 0.143316,2.04225 0,0.42995 -0.143316,1.57648 -0.107487,0.85989 -0.107487,1.57647 v 1.1107 q 0.91364,-0.78824 2.454286,-2.09599 1.27193,-1.07487 2.66926,-1.75563 z m 8.401899,10.82036 q -0.555349,-0.23289 -1.648134,-0.9853 0,0.16123 0.07166,0.50161 0.07166,0.32246 0.07166,0.48369 0,0.17915 -0.07166,0.51952 -0.07166,0.32246 -0.07166,0.50161 h 0.03583 q 0.465777,-0.34038 1.612305,-1.02113 z"
         style=""
         id="path3775" />
      <path
         d="m 178.25062,200.34166 q -3.99494,3.77996 -3.99494,6.98665 v 26.29848 q 0,0.41204 -0.69866,0.41204 -0.7345,0 -0.7345,-0.41204 v -9.72757 h -16.55299 q -3.00964,0 -5.76847,3.00964 h -0.2508 q -0.69867,0 -0.69867,-0.91364 0,-0.42995 0.25081,-1.39733 0.26871,-0.96739 0.26871,-1.46899 0,-0.53744 -0.26871,-1.57648 -0.25081,-1.03904 -0.25081,-1.50481 0,-0.69867 0.69867,-0.69867 0.26872,0 0.48369,0.26872 0.8599,1.09278 2.07808,1.88102 1.41525,0.89572 2.61552,0.89572 h 17.32332 v -11.33987 h -17.32332 q -2.49012,0 -4.37114,2.50803 -0.32246,0.42995 -0.91364,0.42995 -0.59118,0 -0.59118,-0.91364 0,-0.46578 0.25081,-1.39733 0.26871,-0.94947 0.26871,-1.43316 0,-0.53744 -0.26871,-1.57648 -0.25081,-1.03904 -0.25081,-1.54065 0,-0.57326 0.94947,-0.57326 2.74092,2.99172 5.76847,2.99172 h 16.48134 q 0,-3.06338 -0.93156,-5.10563 -0.91364,-2.04225 -3.18878,-4.10242 v -0.32246 q 0,-0.66284 0.7345,-0.66284 l 2.02433,0.51952 q 0.84199,0.21498 2.096,0.21498 1.27193,0 2.99172,-0.39412 0.0537,0 0.44786,-0.16123 0.41204,-0.17915 0.66284,-0.17915 0.66284,0 0.66284,0.9853 z m -24.9549,33.03433 q 0,0.66284 -0.66283,0.66284 -0.6091,0 -1.71979,-0.8599 -0.82407,-0.64492 -1.64814,-1.2361 h -0.0717 q 0,0.19706 0.0358,0.55535 0.0358,0.3762 0.0358,0.57326 0,0.96739 -0.73449,0.96739 -0.77033,0 -0.77033,-0.41204 v -2.79466 q -0.0358,-0.0717 -0.14331,-0.0717 l -10.42624,-7.39868 v 5.57141 q 0,0.21497 -0.35829,0.2508 l -0.23289,-0.0717 q -0.10748,-0.0717 -0.10748,-0.17914 v -6.0551 l -1.02113,-0.7345 q -1.41525,-1.02112 -3.63664,-1.02112 -0.34038,0 -1.21819,0.14331 -0.66284,0.10749 -1.20027,0.10749 -0.66284,0 -0.66284,-0.66284 0,-0.42995 0.51952,-0.73449 1.07487,-0.62701 2.07809,-2.096 1.07486,-1.55856 1.07486,-2.70509 0,-0.75241 -1.07486,-2.13182 -0.93156,-1.18236 -1.64814,-1.64814 -0.28663,-0.17914 -0.28663,-0.55535 0,-0.77032 0.77032,-0.77032 0.44787,0 1.30776,0.21497 0.8599,0.19706 1.28984,0.19706 2.13183,0 3.27836,-0.73449 l 10.12169,-6.46713 v -0.0717 q 0,-0.26872 -1.30776,-1.55856 -1.30776,-1.28985 -1.30776,-1.63022 0,-0.66284 0.77032,-0.66284 0.57327,0 1.93477,0.37621 1.37942,0.35829 2.07808,0.35829 1.46899,0 3.11712,-0.39412 1.43316,-0.34038 1.16445,-0.34038 0.66283,0 0.66283,0.66284 0,0.44786 -0.32246,0.66283 -1.54064,1.27193 -2.57969,2.9559 -1.20027,1.95268 -1.20027,3.69038 v 22.76933 l 3.85162,2.75883 q 0.2508,0.17915 0.2508,0.51952 z m 21.80195,-31.85197 h -3.27836 q 0.57327,0.89572 1.57648,2.86632 h 0.0896 q 0.19706,-0.46578 1.61231,-2.86632 z m -25.06239,0 h -3.18878 q 0.21498,0.59117 0.71658,1.39733 0.64493,1.03904 0.78824,1.3615 l 0.10749,0.10749 q 0.62701,-1.05696 1.57647,-2.86632 z m 2.90215,8.72436 -1.3615,-0.69867 v 1.50482 z m -5.24894,0.34037 v -2.61552 q 0,-1.57647 -0.77033,-3.33209 h -0.0717 q -0.16123,0.0537 -0.34037,0.14331 l -2.41846,1.54065 q 0.10749,0.10749 0.2508,0.14332 0.78824,2.4722 2.31097,3.52915 0.0896,0.0538 1.03905,0.59118 z m -2.49012,-0.84198 q -0.46578,-0.42995 -1.03904,-1.54065 -0.39412,1.32568 -0.84198,1.64814 0.60909,-0.0896 1.1107,-0.0896 0.39412,0 0.71658,0.0538 z m 2.49012,5.57141 v -4.10242 q -0.10749,0.0717 -0.14332,0.0717 -2.096,-0.7345 -2.97381,-0.7345 -0.87781,0 -2.06016,0.35829 0.77032,1.86311 2.09599,2.77675 1.54065,0.80615 3.0813,1.63022 z m -4.62194,-1.98851 q -0.6091,-0.69867 -1.03905,-1.50482 v 0.0896 q -0.2508,0.66284 -0.80615,1.54065 0.48369,-0.0717 1.03904,-0.0717 0.37621,0 0.77033,0.0358 z m 9.87088,9.87089 -1.3615,-0.80616 v 1.50482 z m -5.24894,-3.51124 v -3.74413 q -0.10749,0.10748 -0.14332,0.10748 -0.48369,-0.21497 -1.91685,-0.91364 -1.95268,-0.94946 -3.08129,-0.94946 -0.82407,0 -1.89894,0.28663 0.87781,2.22139 2.3468,2.90215 1.70187,0.78823 4.6936,2.31097 z m -4.04868,-13.05967 -6.41339,4.10242 q -0.23289,0.16123 -0.80615,0.59118 0.2508,0.0717 0.48369,0.0717 0.51952,0 1.16444,-0.2508 0.7345,-0.28663 0.80615,-0.30455 0.34038,0 0.37621,0.17915 v 0.51952 q -2.06017,2.65135 -2.06017,4.96232 v 2.92006 q 0.23289,-0.35829 0.44786,-1.37942 -0.0358,-0.0537 -0.0358,-0.16123 0,-0.10749 0.0717,-0.28663 l 0.10749,-0.10749 q 0.17914,-0.627 0.28663,-0.627 0.0896,0.0179 0.21498,0.0716 0.89572,-1.03904 1.21818,-2.45428 -0.0358,-0.0717 -0.0358,-0.10749 0,-0.1254 0.0717,-0.34038 l 0.10749,-0.32246 q 0.16123,-0.19706 0.26871,-0.34037 0.0896,0.0896 0.17915,0.0896 1.39733,-1.64813 1.39733,-3.20669 0.19706,-0.34038 0.28663,-0.35829 0.10749,0.0179 0.28663,0.10748 l 0.77033,-0.87781 q 0.34037,-0.51952 0.55535,-1.21818 0.0358,-0.42995 0.2508,-1.27193 z m -2.49012,10.33666 v -0.0717 q -0.64492,-0.7524 -1.02112,-1.50481 v 0.0358 q -0.16123,0.3762 -0.30455,0.80615 -0.2508,0.39412 -0.5016,0.73449 0.59117,-0.0537 1.03904,-0.0537 0.46577,0 0.78823,0.0537 z m -3.47541,-4.65777 h -0.0717 q -0.1254,0 -0.39411,0.0717 -0.25081,0.0717 -0.37621,0.0717 -0.14332,0 -0.42995,-0.0717 -0.28663,-0.0717 -0.42994,-0.0717 0.23288,0.53744 0.82406,1.95268 h 0.0358 q 0.41203,-1.14652 0.84198,-1.95268 z m 10.01421,11.89523 v -3.60082 q -0.51952,-0.23288 -3.04547,-1.54064 -2.63343,-1.3615 -4.0845,-1.3615 -0.75241,0 -1.7198,0.2508 0.87781,2.18557 2.27515,2.90215 z m -13.65085,-12.28935 h -0.28663 q -0.21498,0 -0.66284,0.0537 -0.44786,0.0537 -0.66284,0.0537 l 0.84199,1.30776 z m 5.28478,8.47356 q -0.42995,-0.42995 -0.9853,-1.54065 -0.0537,0.12541 -0.82407,1.61231 v 0.0358 q 0.68075,-0.10749 1.14653,-0.10749 0.34037,0 0.62701,0.0717 z m -2.83049,-0.0358 v -3.85161 q 0,-1.54065 -1.28985,-3.70831 -0.64492,1.07487 -1.09278,3.15296 -0.1254,0.35829 -0.25081,0.59117 0,2.07809 2.27515,4.20991 0.10748,-0.10749 0.35829,-0.39412 z m 11.19656,8.6527 v -3.9591 q -0.8599,-0.42995 -6.89709,-3.52916 -0.69866,-0.35829 -2.06016,-0.35829 -0.68075,0 -1.54065,0.21498 v 0.17914 z m -14.24203,-9.20805 v -0.0717 l -0.59118,-1.28984 -0.0717,-0.0717 q -0.23288,0.35829 -0.84198,1.25402 0.25081,0 0.71658,0.0896 0.48369,0.0896 0.71658,0.0896 z"
         style=""
         id="path3777" />
      <path
         d="m 228.24998,219.20562 q 0,0.21498 -0.66284,0.77033 h -0.46577 q -3.42167,0 -6.35965,1.39733 -1.09278,0.51952 -1.34359,0.77032 l -13.36421,13.13133 q 1.05695,0.98529 1.05695,1.14653 0,0.2508 -0.35829,0.64492 -0.34037,0.30454 -0.627,0.34037 -0.14332,0 -0.25081,-0.10748 l -14.77946,-14.79738 q -3.20669,-2.40054 -8.25858,-2.2214 -0.55535,-0.627 -0.55535,-0.73449 0,-0.53744 0.91364,-1.14653 0.68075,-0.35829 1.3615,-0.73449 1.21819,-0.66284 1.79145,-1.28985 0.89573,-0.96738 1.70188,-2.31097 v -0.0716 q 0,-0.10749 0.0717,-0.25081 v 0.0358 l 0.0717,-0.0717 q 0.0716,-0.30454 0.42994,-0.73449 h -0.0358 q 0.19706,-0.39412 0.55535,-0.39412 0.0896,0 0.17915,0.0179 2.77675,-2.81257 8.43773,-8.40189 0.10748,-0.23289 0.84198,-1.45108 1.54064,-2.5976 1.43316,-6.78959 0.66283,-0.59118 0.80615,-0.59118 0.28663,0 0.77032,0.75241 0.14332,0.21497 0.51952,0.82407 0.59118,1.02112 1.50482,2.31097 0.64492,0.71658 2.13183,1.68396 2.61551,-1.64814 3.81578,-3.92328 0.0358,-0.2508 0.25081,-0.77032 l 0.2508,-0.2508 h -0.0358 q 0.23289,-0.41204 0.59118,-0.41204 0.2508,0 0.80615,0.66284 v 0.48369 q 0,3.86953 1.39733,6.34173 0.23289,0.55535 0.84198,1.3615 l 7.70324,7.81073 q 0.34037,0.10748 0.55535,0.44786 0.34037,0.53743 0.39412,0.57326 l 0.89572,0.84198 q 0.0358,0.0717 0.0358,0.19706 0,0.14332 -0.1254,0.39412 0.44786,0.66284 1.70188,1.91685 1.46898,1.46899 1.97059,1.46899 0.44786,0.1254 1.00321,0.53744 v -0.0358 q 0.42995,0.28663 0.42995,0.627 z m -17.60995,-16.76796 q -0.26872,-1.21819 -0.80615,-3.00964 -0.23289,0.42995 -0.94947,1.28984 -0.59118,0.35829 -1.28984,0.9853 l 0.10748,0.0358 h 0.0358 q 1.86311,0.35829 2.90215,0.69867 z m 13.75833,15.89015 q -0.42995,-0.23288 -1.28984,-0.91364 -0.50161,-0.68075 -1.02113,-1.32567 -0.14331,1.05696 -0.69866,3.04547 1.37941,-0.34038 3.00963,-0.80616 z m -20.65541,-16.83962 q -0.28663,-0.21498 -1.16444,-0.87781 -0.21498,-0.16123 -0.96739,-1.43316 -0.21497,1.09278 -0.77032,3.11712 1.02113,-0.23289 2.90215,-0.80615 z m 16.76797,12.18185 -1.46899,-1.50481 v 0.14331 q 0,0.55535 -0.28663,0.55535 h -11.64443 q -0.1254,0.0538 -1.41524,0.35829 -2.43637,0.59118 -4.99815,3.0813 h 0.28664 q 3.35001,3.38584 6.4313,3.38584 h 11.62651 q 0.0717,0 0.10749,0.0358 1.3615,-2.54385 1.3615,-6.0551 z m -16.28428,-1.25401 v -0.10749 q -1.14653,-0.41203 -2.54386,-1.32567 v 0.0717 q 0,0.30454 0.0717,0.62701 0.1254,0.53743 0.1254,0.627 -0.0179,0.16123 -0.1254,0.69867 -0.0717,0.35829 -0.0717,0.69866 0.77032,-0.51952 2.54386,-1.28984 z m 14.38534,-0.69867 -6.01927,-6.16258 q -3.18878,-2.38263 -8.29441,-2.27514 l -0.0358,-0.0358 q -3.65456,0.39412 -5.35644,2.06016 l -8.95724,8.79602 q 0,3.49333 1.39733,5.91179 0.23289,0.51952 0.84198,1.39733 l 12.73721,12.7372 13.34629,-13.02383 q 0.0717,-0.0717 0.21498,-0.30455 h -11.07116 q -0.16123,0 -1.07487,0.26872 -2.99172,0.87781 -5.35643,3.18878 h -0.6091 q -0.26871,0 -0.26871,-0.7345 0,-0.51952 0.34037,-1.64813 0.35829,-1.14653 0.35829,-1.73771 0,-0.59118 -0.35829,-1.68396 -0.34037,-1.09278 -0.34037,-1.54065 0,-0.55535 0.26871,-0.627 h -0.30454 q -0.28664,0 -0.28664,-0.7345 0,-0.30455 0.32247,-1.43316 0.3762,-1.30776 0.3762,-1.89893 0,-0.59118 -0.35829,-1.7198 -0.34038,-1.12861 -0.34038,-1.54064 0,-0.48369 0.21498,-0.59118 h 0.69866 q 3.43959,3.33209 6.41339,3.33209 z m -14.09871,8.67062 v -0.10749 q -1.21818,-0.46577 -2.52594,-1.3615 v 0.10749 q 0,0.21497 0.10748,0.62701 0.10749,0.41203 0.10749,0.627 0,0.23289 -0.10749,0.69867 -0.10748,0.44786 -0.10748,0.68075 0.66283,-0.3762 2.52594,-1.27193 z m -15.33481,-0.93155 q -0.3762,-1.32568 -0.84198,-3.0813 -0.32246,0.51952 -1.25401,1.57648 -0.50161,0.3762 -0.9853,0.69866 1.00321,0.21498 3.08129,0.80616 z"
         style=""
         id="path3779" />
    </g>
  </g>
</svg>
